Simulation
nRows=43
nColumns=15
endheader
time  TH_x TH_y TH_z SC_y  SC_z  SC_x  AC_y  AC_z  AC_x  GH_y  GH_z  GH_yy  EL_x  PS_y
1.549999999999999  0.000000  0.000000  0.000000  -35.68786192311516  7.731048589627585  23.295028682103553  59.879902787726486  7.859557505196943  -3.0239314565106303  -12.648767811182992  51.50545707543716  23.493336791697015  17.968701876964957  0.000000
1.5809999999999989  0.000000  0.000000  0.000000  -36.148587829834845  8.04608278701566  23.74251337687636  60.059492418919  8.049615637459649  -2.4623155264368726  -13.147915935674487  52.0004221311709  23.669348212633338  17.955795108584645  0.000000
1.611999999999999  0.000000  0.000000  0.000000  -36.57156878624755  8.330572450748994  24.11239706528961  60.21239247744222  8.230469267364722  -1.9426616648555632  -13.572120559594024  52.43419753931477  23.81379464012443  17.95063166202835  0.000000
1.642999999999999  0.000000  0.000000  0.000000  -36.95006084027623  8.571969280170169  24.40848278502945  60.34382818195602  8.40285918095459  -1.48293135204998  -13.918119809672731  52.80359508335417  23.926201230043393  17.95220417508889  0.000000
1.6739999999999988  0.000000  0.000000  0.000000  -37.28185403215284  8.763761965181876  24.636697024740357  60.455317683713545  8.56371407686461  -1.0985176151108471  -14.180855222363675  53.10225920395028  24.009021530162716  17.959147782143884  0.000000
1.7049999999999987  0.000000  0.000000  0.000000  -37.56622142369247  8.905057290015366  24.801529821976626  60.54472084518098  8.706463266429822  -0.8013751109186922  -14.35471966028797  53.320859265389316  24.066725618705714  17.969676376894917  0.000000
1.7359999999999989  0.000000  0.000000  0.000000  -37.79991942316105  8.998374959501659  24.90406327212112  60.607675603667346  8.82253435117  -0.5998722225720184  -14.436889612526222  53.44753858238746  24.104634035786958  17.981808731976933  0.000000
1.7669999999999988  0.000000  0.000000  0.000000  -37.97546513359452  9.048046073962103  24.941857570869928  60.63916940489804  8.902829097351724  -0.49768647977837505  -14.430622092222412  53.46796411724581  24.127995944116076  17.994378792825728  0.000000
1.7979999999999987  0.000000  0.000000  0.000000  -38.08235283127811  9.058597785541343  24.91057912894991  60.63532500755167  8.93964281827795  -0.4931144538365233  -14.346538635696225  53.366095941016226  24.141316058636946  18.00764036393596  0.000000
1.8289999999999988  0.000000  0.000000  0.000000  -38.10943991437438  9.032607972696335  24.806617401051874  60.594928036960724  8.929114487870365  -0.5806014674830684  -14.200749513839561  53.12713754728657  24.147372175472903  18.022566181708246  0.000000
1.8599999999999988  0.000000  0.000000  0.000000  -38.047758407892076  8.967845642120075  24.629639099550378  60.52059774173411  8.873124533936343  -0.7548560034132505  -14.010449021670855  52.7421884293075  24.14650476419274  18.03958793733657  0.000000
1.8909999999999987  0.000000  0.000000  0.000000  -37.89262899151583  8.855864872630564  24.384258959958043  60.41893501622305  8.778822493825048  -1.0146932772255868  -13.789680734159429  52.21141811396864  24.136516941027935  18.05799246811899  0.000000
1.9219999999999986  0.000000  0.000000  0.000000  -37.644559358608916  8.684860227967105  24.0799501315214  60.29886831525414  8.654921464715757  -1.3627558976188205  -13.547379626511528  51.54303826492571  24.11301693113147  18.076715832531093  0.000000
1.9529999999999987  0.000000  0.000000  0.000000  -37.310639281243525  8.446787778988607  23.728269312875955  60.16787890874898  8.505985833270472  -1.800900244412442  -13.285668486079427  50.74970195899909  24.070306352346233  18.096526479605583  0.000000
1.9839999999999987  0.000000  0.000000  0.000000  -36.90531516994215  8.144884559116848  23.33774570590531  60.02671866902516  8.328574989554046  -2.32526609765868  -12.996304151247054  49.8467716274864  24.002150809682554  18.121767273713548  0.000000
2.014999999999999  0.000000  0.000000  0.000000  -36.448154709486396  7.794049492656677  22.90987740057264  59.867648091657806  8.113590411478564  -2.925333438962792  -12.659565628855537  48.853517369437945  23.9021908273488  18.15935208081081  0.000000
2.0459999999999985  0.000000  0.000000  0.000000  -35.95892605142022  7.41167519237261  22.440651263494157  59.6801585018318  7.854233197765891  -3.5867922863174906  -12.252690461112792  47.792120711196795  23.76508177380053  18.215284977209844  0.000000
2.0769999999999986  0.000000  0.000000  0.000000  -35.45322599278074  7.007263617873035  21.92689321422725  59.45996693269743  7.552809981503563  -4.294478135461947  -11.76533731054317  46.68180619791521  23.588531196178735  18.291487052990576  0.000000
2.1079999999999988  0.000000  0.000000  0.000000  -34.942666619308994  6.580896130644101  21.3709872511046  59.21268305782213  7.220097072198736  -5.033454149360276  -11.207219442657491  45.53441859044008  23.374746821403782  18.385471130695958  0.000000
2.1389999999999985  0.000000  0.000000  0.000000  -34.43787402841419  6.129595055473865  20.779870127780374  58.94964100299888  6.868703934457458  -5.789116811972269  -10.60044565036551  44.3573644282683  23.129275250409826  18.492485378987883  0.000000
2.1699999999999986  0.000000  0.000000  0.000000  -33.949535872857275  5.653351879313709  20.160583026655768  58.68132298582121  6.5072246239272875  -6.546926093024708  -9.965814591745946  43.16032062457291  22.85738617556683  18.607527506845482  0.000000
2.2009999999999983  0.000000  0.000000  0.000000  -33.48756091568891  5.1567853367359255  19.51629194081213  58.41437122186805  6.139273807176167  -7.291642956970799  -9.314973435488868  41.95863787369461  22.56101287546807  18.725963984370452  0.000000
2.2319999999999984  0.000000  0.000000  0.000000  -33.060518244357  4.64739997090699  18.844781297538276  58.15278573088636  5.766161886969061  -8.006401225915758  -8.65102006982504  40.77156162006846  22.238062257758735  18.843624028522992  0.000000
2.2629999999999986  0.000000  0.000000  0.000000  -32.67554645296054  4.1333233912298715  18.139058426373577  57.89999607948355  5.390097648480514  -8.672476886457263  -7.972562458561402  39.618115875042925  21.883434406108847  18.956794633084737  0.000000
2.2939999999999983  0.000000  0.000000  0.000000  -32.33823739861556  3.6221441208349554  17.388938514200575  57.659651661773786  5.0160360417477605  -9.270120163644266  -7.2764181332575495  38.513659057791216  21.490355933660894  19.062126110972095  0.000000
2.3249999999999984  0.000000  0.000000  0.000000  -32.05246482747573  3.1206097895922524  16.583085820268757  57.4349159226835  4.651891894973987  -9.780507602027855  -6.558160945474383  37.4678134379649  21.05151974183241  19.157226868871312  0.000000
2.3559999999999985  0.000000  0.000000  0.000000  -31.819724083728314  2.634599016567507  15.711243002189658  57.22692136063005  4.307791108548814  -10.188344544217488  -5.81209259206245  36.483177219116506  20.56001553995011  19.240931064911624  0.000000
2.3869999999999982  0.000000  0.000000  0.000000  -31.638190790001644  2.1689886537903997  14.766223892372874  57.03375376779315  3.9950060505009652  -10.4839653428036  -5.032301748907176  35.554509772947334  20.010225679690056  19.312828147919888  0.000000
2.4179999999999984  0.000000  0.000000  0.000000  -31.502901720074412  1.7275736715639687  13.745473454028165  56.85106100129218  3.7246618508199765  -10.66415556433703  -4.214767281979765  34.668558718321364  19.399042441348566  19.37354382104571  0.000000
2.4489999999999985  0.000000  0.000000  0.000000  -31.406813703093068  1.3129864018430828  12.652318678047411  56.6738516776746  3.5065034366691807  -10.73177915222677  -3.359661421708349  33.80463759134554  18.727145098790427  19.42476123132671  0.000000
2.479999999999998  0.000000  0.000000  0.000000  -31.34166589522429  0.9266014367630098  11.496654481562153  56.49838613963277  3.3481650147634796  -10.694852279286147  -2.47306963912355  32.93613337214025  17.999668126489038  19.468304416564617  0.000000
2.5109999999999983  0.000000  0.000000  0.000000  -31.298474842952672  0.5688502653986945  10.294817975630707  56.323161677824935  3.254827350882699  -10.565442614719732  -1.566701027934014  32.03318191505782  17.22563607458548  19.505529808824484  0.000000
2.5419999999999985  0.000000  0.000000  0.000000  -31.26764630176042  0.23986338499865967  9.068556200731576  56.1487634407976  3.2289075821410584  -10.358464228155077  -0.6555084871659624  31.066574529002185  16.416373528913407  19.537152522256736  0.000000
2.572999999999998  0.000000  0.000000  0.000000  -31.238834242296136  -0.05961555548834695  7.84331741983167  55.976945890671416  3.269709239476171  -10.0904665303285  0.24595701427543604  30.012040510627916  15.583398917007553  19.563521665880202  0.000000
2.6039999999999983  0.000000  0.000000  0.000000  -31.201095032951017  -0.327740866378014  6.64600294146494  55.8097538525741  3.373123074177208  -9.778664000107991  1.1267681173870043  28.853968663311985  14.73692054859645  19.585260731497026  0.000000
2.634999999999998  0.000000  0.000000  0.000000  -31.144248953397202  -0.5619932003142094  5.502628146174572  55.64904456430643  3.5313710310085367  -9.43995133244434  1.9812763134857778  27.587509639248232  13.885698453146523  19.60372898556366  0.000000
2.665999999999998  0.000000  0.000000  0.000000  -31.061209271804355  -0.760110803828038  4.436462433827624  55.496421527958944  3.7330256914988706  -9.090589657889751  2.8090359681531702  26.21862130550999  13.037981664073426  19.621618524122475  0.000000
2.6969999999999983  0.000000  0.000000  0.000000  -30.95008030888502  -0.9214402818439356  3.466673428470611  55.3532066832293  3.96403627430115  -8.746001087632052  3.6133642230759735  24.762148278124823  12.202073257631907  19.643464791680195  0.000000
2.727999999999998  0.000000  0.000000  0.000000  -30.814434856351625  -1.047595429974701  2.6073981473414825  55.22037711780044  4.209527560650594  -8.420547354576485  4.40036562904095  23.238517414048175  11.385916083982886  19.675281966416804  0.000000
2.758999999999998  0.000000  0.000000  0.000000  -30.661815760437076  -1.1422486354502428  1.8676959228659187  55.09839548747063  4.455439550646808  -8.127208656132956  5.178315656671104  21.66960054841135  10.595900688070548  19.723919802051295  0.000000
2.7899999999999983  0.000000  0.000000  0.000000  -30.501286032058808  -1.2106010202001876  1.2520758992976904  54.98671659349678  4.690290927388461  -7.876959426776644  5.958017900035377  20.074780176055725  9.835056717203862  19.79661329129661  0.000000
2.820999999999998  0.000000  0.000000  0.000000  -30.340275143684714  -1.2583020771544629  0.7618069944852526  54.88403200689527  4.906055353710413  -7.679043313022715  6.752539058319874  18.467980863565696  9.10232673865651  19.900015094435425  0.000000
2.851999999999998  0.000000  0.000000  0.000000  -30.184338891556582  -1.2909920528001972  0.39617561581013117  54.78843827372527  5.098229784520447  -7.540916346224538  7.576707164487174  16.856142982326887  8.393670081172527  20.039906082216074  0.000000
